<?xml version="1.0" encoding="UTF-8" standalone="no"?>
<!DOCTYPE svg PUBLIC "-//W3C//DTD SVG 1.1//EN"
 "http://www.w3.org/Graphics/SVG/1.1/DTD/svg11.dtd">
<!-- Generated by graphviz version 10.0.1 (20240210.2158)
 -->
<!-- Pages: 1 -->
<svg width="301pt" height="135pt"
 viewBox="0.00 0.00 301.25 135.26" xmlns="http://www.w3.org/2000/svg" xmlns:xlink="http://www.w3.org/1999/xlink">
<g id="graph0" class="graph" transform="scale(1 1) rotate(0) translate(4 131.26)">
<polygon fill="white" stroke="none" points="-4,4 -4,-131.26 297.25,-131.26 297.25,4 -4,4"/>
<!-- 1 -->
<g id="node1" class="node">
<title>1</title>
<ellipse fill="none" stroke="black" cx="27" cy="-55.26" rx="27" ry="18"/>
<text text-anchor="middle" x="27" y="-50.21" font-family="Times,serif" font-size="14.00">1</text>
</g>
<!-- 2 -->
<g id="node2" class="node">
<title>2</title>
<ellipse fill="none" stroke="black" cx="162.75" cy="-109.26" rx="27" ry="18"/>
<text text-anchor="middle" x="162.75" y="-104.21" font-family="Times,serif" font-size="14.00">2</text>
</g>
<!-- 1&#45;&gt;2 -->
<g id="edge1" class="edge">
<title>1&#45;&gt;2</title>
<path fill="none" stroke="#ff1744" d="M48.8,-66.3C56.05,-69.98 64.3,-73.98 72,-77.26 89.97,-84.92 110.47,-92.33 127.33,-98.08"/>
<polygon fill="#ff1744" stroke="#ff1744" points="125.8,-101.26 136.4,-101.13 128.03,-94.62 125.8,-101.26"/>
<text text-anchor="middle" x="94.88" y="-97.96" font-family="Times,serif" font-size="14.00" fill="#ff1744">(1âˆ’ğ‘)ğœ†â‚</text>
</g>
<!-- 3 -->
<g id="node3" class="node">
<title>3</title>
<ellipse fill="none" stroke="black" cx="162.75" cy="-55.26" rx="27" ry="18"/>
<text text-anchor="middle" x="162.75" y="-50.21" font-family="Times,serif" font-size="14.00">3</text>
</g>
<!-- 1&#45;&gt;3 -->
<g id="edge2" class="edge">
<title>1&#45;&gt;3</title>
<path fill="none" stroke="black" d="M54.42,-55.26C74.3,-55.26 101.81,-55.26 124.01,-55.26"/>
<polygon fill="black" stroke="black" points="123.87,-58.76 133.87,-55.26 123.87,-51.76 123.87,-58.76"/>
<text text-anchor="middle" x="94.88" y="-59.96" font-family="Times,serif" font-size="14.00">ğœ†â‚‚â»</text>
</g>
<!-- 4 -->
<g id="node4" class="node">
<title>4</title>
<ellipse fill="none" stroke="black" cx="266.25" cy="-55.26" rx="27" ry="18"/>
<text text-anchor="middle" x="266.25" y="-50.21" font-family="Times,serif" font-size="14.00">4</text>
</g>
<!-- 1&#45;&gt;4 -->
<g id="edge3" class="edge">
<title>1&#45;&gt;4</title>
<path fill="none" stroke="black" d="M47.92,-43.44C78.45,-26.82 138.64,0 189.75,-13.26 206.92,-17.72 224.35,-27.02 238.12,-35.74"/>
<polygon fill="black" stroke="black" points="235.92,-38.48 246.19,-41.08 239.78,-32.64 235.92,-38.48"/>
<text text-anchor="middle" x="162.75" y="-14.96" font-family="Times,serif" font-size="14.00">ğ‘ğ‘ğœ†</text>
</g>
<!-- 2&#45;&gt;4 -->
<g id="edge4" class="edge">
<title>2&#45;&gt;4</title>
<path fill="none" stroke="#f57c00" d="M184.29,-98.33C198.64,-90.7 218.06,-80.37 234.28,-71.74"/>
<polygon fill="#f57c00" stroke="#f57c00" points="235.87,-74.86 243.05,-67.07 232.58,-68.68 235.87,-74.86"/>
<text text-anchor="middle" x="214.5" y="-89.96" font-family="Times,serif" font-size="14.00" fill="#f57c00">ğœ†â‚‚</text>
</g>
<!-- 3&#45;&gt;4 -->
<g id="edge5" class="edge">
<title>3&#45;&gt;4</title>
<path fill="none" stroke="#ff1744" d="M190.15,-55.26C201.55,-55.26 215.09,-55.26 227.51,-55.26"/>
<polygon fill="#ff1744" stroke="#ff1744" points="227.47,-58.76 237.47,-55.26 227.47,-51.76 227.47,-58.76"/>
<text text-anchor="middle" x="214.5" y="-59.96" font-family="Times,serif" font-size="14.00" fill="#ff1744">ğœ†â‚</text>
</g>
</g>
</svg>
